<svg width="124" height="43" viewBox="0 0 124 43" fill="none" xmlns="http://www.w3.org/2000/svg">
<path d="M0.568438 31V30.08L16.6224 1.974H8.06644C7.11577 1.974 6.3491 2.204 5.76644 2.664C5.18377 3.124 4.67777 3.768 4.24844 4.596L2.31644 8.23H1.07444L1.39644 0.593999H23.7984V1.514L7.74444 29.62H17.5424C18.4931 29.62 19.2444 29.39 19.7964 28.93C20.3484 28.4393 20.8391 27.7647 21.2684 26.906L23.1544 23.364H24.3964L24.0744 31H0.568438ZM37.5851 8.23C39.5171 8.23 41.1731 8.62867 42.5531 9.426C43.9331 10.2233 44.9911 11.3273 45.7271 12.738C46.4938 14.118 46.8771 15.7127 46.8771 17.522C46.8771 17.9207 46.8618 18.304 46.8311 18.672C46.8005 19.0093 46.7391 19.3313 46.6471 19.638H32.8011C32.8318 22.7967 33.4145 25.066 34.5491 26.446C35.7145 27.826 37.4011 28.516 39.6091 28.516C41.1425 28.516 42.3845 28.2707 43.3351 27.78C44.2858 27.2587 45.1598 26.538 45.9571 25.618L46.6931 26.308C45.7731 27.9947 44.5158 29.3133 42.9211 30.264C41.3571 31.184 39.4865 31.644 37.3091 31.644C35.1318 31.644 33.2151 31.184 31.5591 30.264C29.9031 29.344 28.5998 28.0253 27.6491 26.308C26.7291 24.56 26.2691 22.4747 26.2691 20.052C26.2691 17.5373 26.8058 15.406 27.8791 13.658C28.9831 11.91 30.3938 10.576 32.1111 9.656C33.8591 8.70533 35.6838 8.23 37.5851 8.23ZM37.3551 9.564C36.4658 9.564 35.6838 9.82467 35.0091 10.346C34.3651 10.8367 33.8438 11.726 33.4451 13.014C33.0771 14.2713 32.8625 16.05 32.8011 18.35H41.0351C41.3725 15.2527 41.2498 13.014 40.6671 11.634C40.0845 10.254 38.9805 9.564 37.3551 9.564ZM49.2199 31V30.126L49.9559 29.942C50.9679 29.6353 51.4739 28.884 51.4739 27.688V14.118C51.4432 13.474 51.3359 12.9833 51.1519 12.646C50.9679 12.278 50.5692 12.0327 49.9559 11.91L49.2199 11.726V10.898L56.6719 8.23L57.2239 8.736L57.5459 11.588C58.6499 10.6067 59.8766 9.80933 61.2259 9.196C62.6059 8.552 63.9552 8.23 65.2739 8.23C67.2979 8.23 68.8466 8.782 69.9199 9.886C71.0239 10.99 71.5759 12.6767 71.5759 14.946V27.734C71.5759 28.93 72.1279 29.6813 73.2319 29.988L73.7379 30.126V31H63.1579V30.126L63.8479 29.942C64.8599 29.6047 65.3659 28.8533 65.3659 27.688V14.026C65.3659 12.9527 65.1359 12.1707 64.6759 11.68C64.2159 11.1893 63.4492 10.944 62.3759 10.944C60.8732 10.944 59.3092 11.6033 57.6839 12.922V27.734C57.6839 28.93 58.2206 29.6813 59.2939 29.988L59.7539 30.126V31H49.2199ZM75.634 31V30.126L76.37 29.942C77.382 29.6353 77.888 28.884 77.888 27.688V14.118C77.8573 13.474 77.75 12.9833 77.566 12.646C77.382 12.278 76.9833 12.0327 76.37 11.91L75.634 11.726V10.898L83.086 8.23L83.638 8.736L83.96 11.588C85.064 10.6067 86.2906 9.80933 87.64 9.196C89.02 8.552 90.3693 8.23 91.688 8.23C93.712 8.23 95.2606 8.782 96.334 9.886C97.438 10.99 97.99 12.6767 97.99 14.946V27.734C97.99 28.93 98.542 29.6813 99.646 29.988L100.152 30.126V31H89.572V30.126L90.262 29.942C91.274 29.6047 91.78 28.8533 91.78 27.688V14.026C91.78 12.9527 91.55 12.1707 91.09 11.68C90.63 11.1893 89.8633 10.944 88.79 10.944C87.2873 10.944 85.7233 11.6033 84.098 12.922V27.734C84.098 28.93 84.6346 29.6813 85.708 29.988L86.168 30.126V31H75.634ZM104.703 42.086C103.477 42.086 102.511 41.7947 101.805 41.212C101.1 40.6293 100.747 39.8627 100.747 38.912C100.747 38.0533 101.039 37.3633 101.621 36.842C102.235 36.3513 102.909 36.106 103.645 36.106C104.412 36.106 105.041 36.244 105.531 36.52C106.022 36.796 106.451 37.1947 106.819 37.716L107.095 38.084C107.801 38.9427 108.46 38.9273 109.073 38.038C109.472 37.5167 109.855 36.8727 110.223 36.106C110.622 35.3393 111.051 34.3273 111.511 33.07L102.771 12.186C102.557 11.6033 102.311 11.1587 102.035 10.852C101.759 10.5147 101.345 10.2387 100.793 10.024L100.011 9.748V8.92H111.373V9.748L110.407 10.024C109.733 10.2387 109.365 10.576 109.303 11.036C109.273 11.4653 109.38 12.0327 109.625 12.738L114.317 24.974L118.825 12.646C119.071 11.9713 119.163 11.404 119.101 10.944C119.04 10.484 118.657 10.1773 117.951 10.024L116.939 9.748V8.92H123.793V9.748L122.781 10.07C122.107 10.254 121.616 10.53 121.309 10.898C121.033 11.2353 120.773 11.7413 120.527 12.416L113.167 32.196C111.941 35.5693 110.683 38.0533 109.395 39.648C108.138 41.2733 106.574 42.086 104.703 42.086Z" fill="#2563EB"/>
</svg>
